<svg width="21" height="20" viewBox="0 0 21 20" fill="none" xmlns="http://www.w3.org/2000/svg">
<path d="M5.66667 18.3334C5.20833 18.3334 4.81611 18.1704 4.49 17.8442C4.16389 17.5181 4.00056 17.1256 4 16.6667V3.33341C4 2.87508 4.16333 2.48286 4.49 2.15675C4.81667 1.83064 5.20889 1.6673 5.66667 1.66675H15.6667C16.125 1.66675 16.5175 1.83008 16.8442 2.15675C17.1708 2.48341 17.3339 2.87564 17.3333 3.33341V16.6667C17.3333 17.1251 17.1703 17.5176 16.8442 17.8442C16.5181 18.1709 16.1256 18.334 15.6667 18.3334H5.66667ZM9.83333 9.16675L11.9167 7.91675L14 9.16675V3.33341H9.83333V9.16675Z" fill="#E8ECF4" fill-opacity="0.7"/>
</svg>
