<svg width="18" height="15" viewBox="0 0 18 15" fill="none" xmlns="http://www.w3.org/2000/svg">
<path d="M15.25 1.875H13.0844L12.0195 0.278125C11.9625 0.192618 11.8852 0.122502 11.7946 0.0739887C11.704 0.0254751 11.6028 6.17226e-05 11.5 0H6.5C6.39721 6.17226e-05 6.29602 0.0254751 6.2054 0.0739887C6.11478 0.122502 6.03752 0.192618 5.98047 0.278125L4.91484 1.875H2.75C2.25272 1.875 1.77581 2.07254 1.42417 2.42417C1.07254 2.77581 0.875 3.25272 0.875 3.75V12.5C0.875 12.9973 1.07254 13.4742 1.42417 13.8258C1.77581 14.1775 2.25272 14.375 2.75 14.375H15.25C15.7473 14.375 16.2242 14.1775 16.5758 13.8258C16.9275 13.4742 17.125 12.9973 17.125 12.5V3.75C17.125 3.25272 16.9275 2.77581 16.5758 2.42417C16.2242 2.07254 15.7473 1.875 15.25 1.875ZM11.8125 7.8125C11.8125 8.36876 11.6475 8.91253 11.3385 9.37504C11.0295 9.83755 10.5902 10.198 10.0763 10.4109C9.56238 10.6238 8.99688 10.6795 8.45131 10.571C7.90574 10.4624 7.4046 10.1946 7.01126 9.80124C6.61793 9.4079 6.35006 8.90676 6.24154 8.36119C6.13302 7.81562 6.18872 7.25012 6.40159 6.7362C6.61446 6.22229 6.97495 5.78303 7.43746 5.47399C7.89997 5.16495 8.44374 5 9 5C9.74592 5 10.4613 5.29632 10.9887 5.82376C11.5162 6.35121 11.8125 7.06658 11.8125 7.8125Z" fill="#EBC448"/>
</svg>
