<svg width="16" height="20" viewBox="0 0 16 20" fill="none" xmlns="http://www.w3.org/2000/svg">
<path d="M4 8C3.86739 8 3.74021 7.94732 3.64645 7.85355C3.55268 7.75979 3.5 7.63261 3.5 7.5C3.5 7.36739 3.55268 7.24021 3.64645 7.14645C3.74021 7.05268 3.86739 7 4 7H12C12.1326 7 12.2598 7.05268 12.3536 7.14645C12.4473 7.24021 12.5 7.36739 12.5 7.5C12.5 7.63261 12.4473 7.75979 12.3536 7.85355C12.2598 7.94732 12.1326 8 12 8H4Z" fill="#EBC448"/>
<path d="M12.2071 6L8.00009 10.53L3.79309 6H12.2071Z" fill="#EBC448"/>
<path fill-rule="evenodd" clip-rule="evenodd" d="M0.767086 5.68L7.26709 12.68C7.36069 12.7809 7.4741 12.8613 7.60023 12.9163C7.72636 12.9714 7.86248 12.9998 8.00009 12.9998C8.13769 12.9998 8.27382 12.9714 8.39994 12.9163C8.52607 12.8613 8.63948 12.7809 8.73309 12.68L15.2331 5.68C15.8271 5.04 15.3731 4 14.5001 4H1.50009C0.627086 4 0.173086 5.04 0.767086 5.68ZM8.00009 10.53L12.2071 6H3.79309L8.00009 10.53Z" fill="#EBC448"/>
<path d="M9 11.5V18.5H7V11.5H9Z" fill="#EBC448"/>
<path d="M12.5 19.9999H3.5C3.5 18.5249 5.55 17.4999 8 17.4999C10.45 17.4999 12.5 18.5249 12.5 19.9999ZM10.818 1.72792C10.6249 1.67965 10.4589 1.55666 10.3565 1.386C10.2541 1.21534 10.2237 1.011 10.272 0.817919C10.3203 0.624842 10.4433 0.458847 10.6139 0.356452C10.7846 0.254057 10.9889 0.22365 11.182 0.271919L15.182 1.27192C15.3751 1.32019 15.5411 1.44318 15.6435 1.61384C15.7459 1.7845 15.7763 1.98884 15.728 2.18192C15.6797 2.375 15.5567 2.54099 15.3861 2.64339C15.2154 2.74578 15.0111 2.77619 14.818 2.72792L10.818 1.72792Z" fill="#EBC448"/>
<path d="M9.21192 8.73691C9.14906 8.92574 9.01377 9.08187 8.8358 9.17095C8.65782 9.26003 8.45175 9.27476 8.26292 9.21191C8.07409 9.14905 7.91796 9.01375 7.82888 8.83578C7.7398 8.65781 7.72506 8.45174 7.78792 8.26291L10.2879 0.762907C10.3181 0.668262 10.3667 0.580546 10.431 0.504852C10.4953 0.429158 10.574 0.366994 10.6626 0.321967C10.7511 0.27694 10.8477 0.249948 10.9468 0.242557C11.0458 0.235167 11.1453 0.247526 11.2396 0.278916C11.3338 0.310306 11.4209 0.360103 11.4957 0.425415C11.5706 0.490727 11.6317 0.570254 11.6755 0.659378C11.7194 0.748502 11.7451 0.845449 11.7512 0.944591C11.7572 1.04373 11.7436 1.14309 11.7109 1.23691L9.21192 8.73691Z" fill="#EBC448"/>
</svg>
