<svg width="20" height="20" viewBox="0 0 20 20" fill="none" xmlns="http://www.w3.org/2000/svg">
<path d="M10 18.3334L9.79167 15.8334H9.58333C7.61111 15.8334 5.9375 15.1459 4.5625 13.7709C3.1875 12.3959 2.5 10.7223 2.5 8.75008C2.5 6.77786 3.1875 5.10425 4.5625 3.72925C5.9375 2.35425 7.61111 1.66675 9.58333 1.66675C10.5694 1.66675 11.4897 1.85064 12.3442 2.21841C13.1986 2.58619 13.9486 3.09314 14.5942 3.73925C15.2397 4.38536 15.7464 5.13536 16.1142 5.98925C16.4819 6.84314 16.6661 7.76341 16.6667 8.75008C16.6667 9.79175 16.4967 10.7917 16.1567 11.7501C15.8167 12.7084 15.3511 13.5973 14.76 14.4167C14.1689 15.2362 13.4675 15.9792 12.6558 16.6459C11.8442 17.3126 10.9589 17.8751 10 18.3334ZM9.5625 13.3126C9.79861 13.3126 10 13.2292 10.1667 13.0626C10.3333 12.8959 10.4167 12.6945 10.4167 12.4584C10.4167 12.2223 10.3333 12.0209 10.1667 11.8542C10 11.6876 9.79861 11.6042 9.5625 11.6042C9.32639 11.6042 9.125 11.6876 8.95833 11.8542C8.79167 12.0209 8.70833 12.2223 8.70833 12.4584C8.70833 12.6945 8.79167 12.8959 8.95833 13.0626C9.125 13.2292 9.32639 13.3126 9.5625 13.3126ZM8.95833 10.6667H10.2083C10.2083 10.2501 10.25 9.95841 10.3333 9.79175C10.4167 9.62508 10.6806 9.31953 11.125 8.87508C11.375 8.62508 11.5833 8.35425 11.75 8.06258C11.9167 7.77091 12 7.45841 12 7.12508C12 6.41675 11.7606 5.88536 11.2817 5.53091C10.8028 5.17647 10.2367 4.99953 9.58333 5.00008C8.97222 5.00008 8.45833 5.17036 8.04167 5.51091C7.625 5.85147 7.33333 6.26453 7.16667 6.75008L8.33333 7.20841C8.40278 6.9723 8.53472 6.7398 8.72917 6.51091C8.92361 6.28203 9.20833 6.1673 9.58333 6.16675C9.95833 6.16619 10.2397 6.27036 10.4275 6.47925C10.6153 6.68814 10.7089 6.9173 10.7083 7.16675C10.7083 7.40286 10.6389 7.6148 10.5 7.80258C10.3611 7.99036 10.1944 8.18119 10 8.37508C9.51389 8.79175 9.21889 9.12175 9.115 9.36508C9.01111 9.60841 8.95889 10.0423 8.95833 10.6667Z" fill="#EBC448"/>
</svg>
