<svg width="25" height="24" viewBox="0 0 25 24" fill="none" xmlns="http://www.w3.org/2000/svg">
<path d="M15.74 2H11.846C10.082 2 8.684 2 7.591 2.148C6.465 2.3 5.554 2.62 4.836 3.341C4.117 4.062 3.798 4.977 3.647 6.107C3.5 7.205 3.5 8.608 3.5 10.379V16.217C3.5 17.725 4.42 19.017 5.727 19.559C5.66 18.649 5.66 17.374 5.66 16.312V11.302C5.66 10.021 5.66 8.916 5.778 8.032C5.905 7.084 6.191 6.176 6.925 5.439C7.659 4.702 8.564 4.415 9.508 4.287C10.388 4.169 11.488 4.169 12.765 4.169H15.835C17.111 4.169 18.209 4.169 19.09 4.287C18.826 3.61337 18.3652 3.03489 17.7676 2.62696C17.1701 2.21902 16.4635 2.00054 15.74 2Z" fill="#643904"/>
<path d="M7.09961 11.397C7.09961 8.67101 7.09961 7.30801 7.94361 6.46101C8.78661 5.61401 10.1436 5.61401 12.8596 5.61401H15.7396C18.4546 5.61401 19.8126 5.61401 20.6566 6.46101C21.4996 7.30801 21.4996 8.67101 21.4996 11.397V16.217C21.4996 18.943 21.4996 20.306 20.6566 21.153C19.8126 22 18.4546 22 15.7396 22H12.8596C10.1446 22 8.78661 22 7.94361 21.153C7.09961 20.306 7.09961 18.943 7.09961 16.217V11.397Z" fill="#643904"/>
</svg>
