<svg width="20" height="15" viewBox="0 0 20 15" fill="none" xmlns="http://www.w3.org/2000/svg">
<path d="M-0.000244141 1.5C-0.000244141 1.10218 0.157791 0.720644 0.439096 0.43934C0.7204 0.158035 1.10193 0 1.49976 0H18.4998C18.8976 8.38353e-09 19.2791 0.158035 19.5604 0.43934C19.8417 0.720644 19.9998 1.10218 19.9998 1.5C19.9998 1.89782 19.8417 2.27936 19.5604 2.56066C19.2791 2.84196 18.8976 3 18.4998 3H1.49976C1.10193 3 0.7204 2.84196 0.439096 2.56066C0.157791 2.27936 -0.000244141 1.89782 -0.000244141 1.5ZM3.99976 7.5C3.99976 7.10218 4.15779 6.72064 4.4391 6.43934C4.7204 6.15804 5.10193 6 5.49976 6H14.4998C14.8976 6 15.2791 6.15804 15.5604 6.43934C15.8417 6.72064 15.9998 7.10218 15.9998 7.5C15.9998 7.89782 15.8417 8.27936 15.5604 8.56066C15.2791 8.84196 14.8976 9 14.4998 9H5.49976C5.10193 9 4.7204 8.84196 4.4391 8.56066C4.15779 8.27936 3.99976 7.89782 3.99976 7.5ZM8.49976 12C8.10193 12 7.7204 12.158 7.4391 12.4393C7.15779 12.7206 6.99976 13.1022 6.99976 13.5C6.99976 13.8978 7.15779 14.2794 7.4391 14.5607C7.7204 14.842 8.10193 15 8.49976 15H11.4998C11.8976 15 12.2791 14.842 12.5604 14.5607C12.8417 14.2794 12.9998 13.8978 12.9998 13.5C12.9998 13.1022 12.8417 12.7206 12.5604 12.4393C12.2791 12.158 11.8976 12 11.4998 12H8.49976Z" fill="white"/>
</svg>
