<svg width="20" height="16" viewBox="0 0 20 16" fill="none" xmlns="http://www.w3.org/2000/svg">
<path d="M13.9062 0.1875C12.3367 0.1875 10.9438 0.807032 10 1.87188C9.05625 0.807032 7.66328 0.1875 6.09375 0.1875C4.72674 0.189154 3.41618 0.732931 2.44956 1.69956C1.48293 2.66618 0.939154 3.97674 0.9375 5.34375C0.9375 10.9953 9.20391 15.5109 9.55547 15.7008C9.69209 15.7744 9.84483 15.8129 10 15.8129C10.1552 15.8129 10.3079 15.7744 10.4445 15.7008C10.7961 15.5109 19.0625 10.9953 19.0625 5.34375C19.0608 3.97674 18.5171 2.66618 17.5504 1.69956C16.5838 0.732931 15.2733 0.189154 13.9062 0.1875ZM13.4773 11.3094C12.3893 12.2327 11.2261 13.0637 10 13.7937C8.77387 13.0637 7.61073 12.2327 6.52266 11.3094C4.82969 9.85703 2.8125 7.64219 2.8125 5.34375C2.8125 4.47351 3.1582 3.63891 3.77356 3.02356C4.38891 2.4082 5.22351 2.0625 6.09375 2.0625C7.48438 2.0625 8.64844 2.79688 9.13203 3.97969C9.20242 4.15212 9.32257 4.29967 9.47715 4.40354C9.63174 4.50741 9.81376 4.56288 10 4.56288C10.1862 4.56288 10.3683 4.50741 10.5228 4.40354C10.6774 4.29967 10.7976 4.15212 10.868 3.97969C11.3516 2.79688 12.5156 2.0625 13.9062 2.0625C14.7765 2.0625 15.6111 2.4082 16.2264 3.02356C16.8418 3.63891 17.1875 4.47351 17.1875 5.34375C17.1875 7.64219 15.1703 9.85703 13.4773 11.3094Z" fill="white"/>
</svg>
