<svg width="20" height="20" viewBox="0 0 20 20" fill="none" xmlns="http://www.w3.org/2000/svg">
<path fill-rule="evenodd" clip-rule="evenodd" d="M9.29203 1.29279C9.47982 1.10532 9.73447 1 10 1C10.2655 1 10.5202 1.10532 10.708 1.29279L16.7162 7.29286L18.7189 9.29289C18.9013 9.48149 19.0022 9.73409 19 9.99629C18.9977 10.2585 18.8924 10.5093 18.7067 10.6947C18.521 10.8801 18.2699 10.9853 18.0073 10.9876C17.7448 10.9899 17.4918 10.8891 17.303 10.7069L17.0096 10.4139V17C17.0096 17.5304 16.7986 18.0391 16.423 18.4142C16.0474 18.7893 15.538 19 15.0068 19H12.0027C11.7372 19 11.4825 18.8946 11.2947 18.7071C11.1069 18.5196 11.0014 18.2652 11.0014 18V15H8.99863V18C8.99863 18.2652 8.89313 18.5196 8.70534 18.7071C8.51755 18.8946 8.26284 19 7.99727 19H4.99316C4.46201 19 3.9526 18.7893 3.57702 18.4142C3.20143 18.0391 2.99043 17.5304 2.99043 17V10.4139L2.69703 10.7069C2.50817 10.8891 2.25522 10.9899 1.99267 10.9876C1.73011 10.9853 1.47896 10.8801 1.29329 10.6947C1.10763 10.5093 1.00232 10.2585 1.00004 9.99629C0.997756 9.73409 1.09869 9.48149 1.2811 9.29289L3.28383 7.29286L9.29203 1.29279Z" fill="white"/>
</svg>
