<svg width="20" height="20" viewBox="0 0 20 20" fill="none" xmlns="http://www.w3.org/2000/svg">
<path d="M19.3748 5.0019C19.3755 4.52026 19.2371 4.04868 18.9761 3.64385C18.7152 3.23902 18.3428 2.91819 17.9039 2.71993C17.465 2.52166 16.9781 2.45442 16.5019 2.52627C16.0256 2.59812 15.5802 2.80601 15.2193 3.12495C15.0239 3.2973 14.8564 3.49891 14.7229 3.72261V3.72495C14.7018 3.76011 14.6818 3.79604 14.6623 3.83198L14.6529 3.85112C14.6365 3.88198 14.6213 3.91323 14.6064 3.94487C14.6018 3.95464 14.5975 3.9644 14.5932 3.97417C14.5803 4.00268 14.5678 4.03159 14.5561 4.06089C14.551 4.073 14.5463 4.08511 14.5416 4.09722C14.5311 4.12456 14.5209 4.1519 14.5111 4.17964L14.4971 4.22104C14.4885 4.24761 14.4803 4.27456 14.4725 4.30151C14.4678 4.31675 14.4635 4.33159 14.4596 4.34682C14.4521 4.373 14.4459 4.39956 14.4396 4.42495C14.4357 4.44097 14.4318 4.45698 14.4283 4.473C14.4229 4.49956 14.4178 4.52651 14.4131 4.55112C14.41 4.56753 14.4068 4.58393 14.4041 4.60034C14.3998 4.62768 14.3963 4.65542 14.3928 4.68315C14.3908 4.69917 14.3885 4.71518 14.3865 4.73159C14.3834 4.76167 14.3814 4.79175 14.3791 4.82222C14.3791 4.83628 14.3768 4.85034 14.376 4.8644C14.3736 4.90893 14.3721 4.95347 14.3721 4.99878C14.3721 5.03784 14.3721 5.0769 14.3752 5.11362V5.13862C14.3773 5.17534 14.38 5.21206 14.3834 5.24878L14.3857 5.26753C14.3893 5.30073 14.3932 5.33354 14.3982 5.36596C14.3982 5.37261 14.3982 5.37964 14.401 5.38628C14.4064 5.42182 14.4131 5.45698 14.4201 5.49214C14.4201 5.50073 14.4236 5.50893 14.4252 5.51753C14.4322 5.55112 14.44 5.58472 14.4486 5.61792V5.62534C14.4576 5.66011 14.4674 5.69409 14.4779 5.72807L14.4861 5.75464C14.4967 5.78784 14.5076 5.82026 14.5193 5.85268C14.5217 5.85972 14.5244 5.86675 14.5271 5.87378C14.5377 5.90151 14.5486 5.92925 14.56 5.95659C14.5631 5.96479 14.5662 5.97261 14.5697 5.98042C14.583 6.01128 14.5967 6.04214 14.6111 6.07261L14.624 6.09878C14.6377 6.12612 14.6514 6.15347 14.6658 6.18042C14.8697 6.55937 15.1675 6.87962 15.5307 7.1105C15.626 7.17142 15.7254 7.22559 15.8283 7.27261L15.8436 7.27964C15.9128 7.31089 15.9835 7.33901 16.0557 7.36401L16.0928 7.37651L16.1514 7.39487C16.1689 7.40034 16.1865 7.40503 16.2045 7.41011L16.2795 7.42964L16.3471 7.44526L16.392 7.45425L16.4635 7.46714L16.5002 7.473C16.5354 7.47807 16.5709 7.48276 16.6064 7.48667L16.6365 7.4894C16.665 7.49175 16.6939 7.49409 16.7229 7.49565L16.7564 7.49761C16.7955 7.49761 16.8322 7.50073 16.8705 7.50073C16.9158 7.50073 16.9604 7.50073 17.0049 7.49682L17.0471 7.4937C17.0775 7.49136 17.1076 7.4894 17.1377 7.48628L17.1865 7.48003C17.2139 7.47651 17.2416 7.473 17.2689 7.4687L17.3182 7.45972C17.3447 7.45503 17.3717 7.44995 17.3963 7.44448L17.4443 7.43315C17.4709 7.4269 17.4975 7.42065 17.5225 7.41323C17.5377 7.40932 17.5525 7.40503 17.5678 7.40034C17.5947 7.39253 17.6217 7.38433 17.6482 7.37573L17.6896 7.36167C17.7174 7.3519 17.7447 7.34175 17.7721 7.3312L17.8084 7.31675C17.8377 7.30503 17.8666 7.29253 17.8951 7.27964L17.9244 7.26636C17.9561 7.25151 17.9873 7.23628 18.0182 7.21987L18.0373 7.2105C18.0732 7.19097 18.1092 7.17143 18.1443 7.14995H18.1467C18.3722 7.01741 18.5757 6.85057 18.7498 6.65542C19.1532 6.19913 19.3755 5.61093 19.3748 5.0019Z" fill="#EBC448"/>
<path d="M14.507 7.91133L10.3836 11.1184C10.2739 11.2036 10.1389 11.2499 10 11.2499C9.86107 11.2499 9.72609 11.2036 9.61641 11.1184L3.99141 6.74336C3.92532 6.69345 3.86981 6.63091 3.8281 6.55936C3.78639 6.48781 3.75932 6.40869 3.74846 6.32659C3.73759 6.24449 3.74315 6.16104 3.76482 6.08111C3.78648 6.00118 3.82381 5.92635 3.87465 5.86097C3.92548 5.79559 3.9888 5.74096 4.06093 5.70027C4.13306 5.65957 4.21255 5.63362 4.2948 5.62391C4.37704 5.6142 4.4604 5.62094 4.54002 5.64372C4.61964 5.66651 4.69394 5.70489 4.75859 5.75664L10 9.8332L13.6805 6.9707C13.3244 6.39459 13.1312 5.73268 13.1215 5.05546C13.1118 4.37824 13.2859 3.71107 13.6254 3.125H3.4375C2.85753 3.12562 2.30149 3.35629 1.89139 3.76639C1.48129 4.17649 1.25062 4.73253 1.25 5.3125V14.6875C1.25062 15.2675 1.48129 15.8235 1.89139 16.2336C2.30149 16.6437 2.85753 16.8744 3.4375 16.875H16.5625C17.1425 16.8744 17.6985 16.6437 18.1086 16.2336C18.5187 15.8235 18.7494 15.2675 18.75 14.6875V8.24961C18.0921 8.63071 17.3337 8.80247 16.5758 8.74204C15.8178 8.68161 15.0963 8.39186 14.507 7.91133Z" fill="#EBC448"/>
</svg>
