<svg width="20" height="20" viewBox="0 0 20 20" fill="none" xmlns="http://www.w3.org/2000/svg">
<g clip-path="url(#clip0_58_5602)">
<path d="M6.11122 9.16675L5.55566 10.889H6.66678L6.11122 9.16675Z" fill="#EBC448"/>
<path d="M17.2581 1H7.96774V4.09278H10.2903V5.3299H2.74194C1.75484 5.3299 1 6.13402 1 7.18557V13.9897C1 15.0412 1.75484 15.8454 2.74194 15.8454H3.32258V19L6.98065 15.8454H10.871V11.5155H17.2581C18.2452 11.5155 19 10.7113 19 9.65979V2.85567C19 1.80412 18.2452 1 17.2581 1ZM7.27097 13.3093L6.98065 12.3196H5.18064L4.83226 13.3093H3.43871L5.35484 7.80412H6.74839L8.66452 13.3093H7.27097ZM16.0968 8.42268V9.65979C15.3419 9.65979 14.529 9.41237 13.8323 9.04124C13.1355 9.41237 12.3226 9.59794 11.5097 9.65979L11.4516 8.42268C11.8581 8.42268 12.2645 8.36083 12.671 8.23711C12.1484 7.68041 11.8 7 11.6258 6.25773H12.8452C13.0194 6.81443 13.3677 7.24742 13.7742 7.61856C14.4129 7.06186 14.8194 6.25773 14.8774 5.3299H11.3935V4.09278H13.1355V2.85567H14.2968V4.09278H16.2129L16.271 4.71134C16.329 6.01031 15.8645 7.30928 14.9935 8.23711C15.4 8.36083 15.7484 8.42268 16.0968 8.42268Z" fill="#EBC448"/>
</g>
<defs>
<clipPath id="clip0_58_5602">
<rect width="20" height="20" fill="white"/>
</clipPath>
</defs>
</svg>
