<svg width="16" height="18" viewBox="0 0 16 18" fill="none" xmlns="http://www.w3.org/2000/svg">
<path d="M15.5 14.3333V15.1666H0.5V14.3333L2.16667 12.6666V7.66663C2.16667 5.08329 3.85833 2.80829 6.33333 2.07496V1.83329C6.33333 1.39127 6.50893 0.967342 6.82149 0.654781C7.13405 0.342221 7.55797 0.166626 8 0.166626C8.44203 0.166626 8.86595 0.342221 9.17851 0.654781C9.49107 0.967342 9.66667 1.39127 9.66667 1.83329V2.07496C12.1417 2.80829 13.8333 5.08329 13.8333 7.66663V12.6666L15.5 14.3333ZM9.66667 16C9.66667 16.442 9.49107 16.8659 9.17851 17.1785C8.86595 17.491 8.44203 17.6666 8 17.6666C7.55797 17.6666 7.13405 17.491 6.82149 17.1785C6.50893 16.8659 6.33333 16.442 6.33333 16" fill="#EBC448"/>
</svg>
