<svg width="20" height="20" viewBox="0 0 20 20" fill="none" xmlns="http://www.w3.org/2000/svg">
<path d="M3.75 4.375V15.625C3.75 15.8736 3.65123 16.1121 3.47541 16.2879C3.2996 16.4637 3.06114 16.5625 2.8125 16.5625C2.56386 16.5625 2.3254 16.4637 2.14959 16.2879C1.97377 16.1121 1.875 15.8736 1.875 15.625V4.375C1.875 4.12636 1.97377 3.8879 2.14959 3.71209C2.3254 3.53627 2.56386 3.4375 2.8125 3.4375C3.06114 3.4375 3.2996 3.53627 3.47541 3.71209C3.65123 3.8879 3.75 4.12636 3.75 4.375ZM10.5258 8.33594L9.375 8.70938V7.5C9.375 7.25136 9.27623 7.0129 9.10041 6.83709C8.9246 6.66127 8.68614 6.5625 8.4375 6.5625C8.18886 6.5625 7.9504 6.66127 7.77459 6.83709C7.59877 7.0129 7.5 7.25136 7.5 7.5V8.70938L6.34922 8.33594C6.23127 8.29445 6.10622 8.27697 5.98142 8.28453C5.85662 8.29209 5.73459 8.32454 5.62252 8.37997C5.51045 8.43539 5.41059 8.51268 5.32883 8.60727C5.24707 8.70187 5.18506 8.81186 5.14645 8.93078C5.10783 9.04969 5.0934 9.17513 5.10399 9.29971C5.11458 9.42429 5.14998 9.5455 5.20811 9.65619C5.26624 9.76689 5.34593 9.86484 5.44248 9.94427C5.53903 10.0237 5.65049 10.083 5.77031 10.1188L6.92031 10.493L6.20938 11.4711C6.0632 11.6723 6.00293 11.9233 6.04182 12.1689C6.08072 12.4146 6.21561 12.6347 6.4168 12.7809C6.61799 12.927 6.86901 12.9873 7.11464 12.9484C7.36027 12.9095 7.58038 12.7746 7.72656 12.5734L8.4375 11.5953L9.14844 12.5734C9.29462 12.7746 9.51473 12.9095 9.76036 12.9484C10.006 12.9873 10.257 12.927 10.4582 12.7809C10.6594 12.6347 10.7943 12.4146 10.8332 12.1689C10.8721 11.9233 10.8118 11.6723 10.6656 11.4711L9.95469 10.493L11.1047 10.1188C11.2245 10.083 11.336 10.0237 11.4325 9.94427C11.5291 9.86484 11.6088 9.76689 11.6669 9.65619C11.725 9.5455 11.7604 9.42429 11.771 9.29971C11.7816 9.17513 11.7672 9.04969 11.7286 8.93078C11.6899 8.81186 11.6279 8.70187 11.5462 8.60727C11.4644 8.51268 11.3646 8.43539 11.2525 8.37997C11.1404 8.32454 11.0184 8.29209 10.8936 8.28453C10.7688 8.27697 10.6437 8.29445 10.5258 8.33594ZM19.5195 8.9375C19.4426 8.70111 19.275 8.50494 19.0535 8.39213C18.8319 8.27932 18.5747 8.25911 18.3383 8.33594L17.1875 8.70938V7.5C17.1875 7.25136 17.0887 7.0129 16.9129 6.83709C16.7371 6.66127 16.4986 6.5625 16.25 6.5625C16.0014 6.5625 15.7629 6.66127 15.5871 6.83709C15.4113 7.0129 15.3125 7.25136 15.3125 7.5V8.70938L14.1617 8.33594C14.0438 8.29445 13.9187 8.27697 13.7939 8.28453C13.6691 8.29209 13.5471 8.32454 13.435 8.37997C13.3229 8.43539 13.2231 8.51268 13.1413 8.60727C13.0596 8.70187 12.9976 8.81186 12.9589 8.93078C12.9203 9.04969 12.9059 9.17513 12.9165 9.29971C12.9271 9.42429 12.9625 9.5455 13.0206 9.65619C13.0787 9.76689 13.1584 9.86484 13.255 9.94427C13.3515 10.0237 13.463 10.083 13.5828 10.1188L14.7328 10.493L14.0219 11.4711C13.9495 11.5707 13.8974 11.6836 13.8687 11.8034C13.8399 11.9231 13.8351 12.0473 13.8543 12.1689C13.8736 12.2906 13.9166 12.4072 13.981 12.5122C14.0453 12.6172 14.1297 12.7085 14.2293 12.7809C14.3289 12.8532 14.4418 12.9053 14.5616 12.934C14.6813 12.9628 14.8055 12.9677 14.9271 12.9484C15.0488 12.9291 15.1654 12.8861 15.2704 12.8218C15.3754 12.7574 15.4667 12.6731 15.5391 12.5734L16.25 11.5953L16.9609 12.5734C17.1071 12.7746 17.3272 12.9095 17.5729 12.9484C17.8185 12.9873 18.0695 12.927 18.2707 12.7809C18.4719 12.6347 18.6068 12.4146 18.6457 12.1689C18.6846 11.9233 18.6243 11.6723 18.4781 11.4711L17.7672 10.493L18.9172 10.1188C19.0343 10.0807 19.1428 10.02 19.2365 9.94012C19.3301 9.86018 19.4071 9.76258 19.463 9.65289C19.519 9.5432 19.5528 9.42356 19.5624 9.30082C19.5721 9.17807 19.5576 9.05461 19.5195 8.9375Z" fill="#EBC448"/>
</svg>
