<svg width="18" height="13" viewBox="0 0 18 13" fill="none" xmlns="http://www.w3.org/2000/svg">
<path d="M9 3.68182C8.34901 3.68182 7.72469 3.94042 7.26437 4.40074C6.80406 4.86105 6.54545 5.48538 6.54545 6.13636C6.54545 6.78735 6.80406 7.41167 7.26437 7.87199C7.72469 8.33231 8.34901 8.59091 9 8.59091C9.65099 8.59091 10.2753 8.33231 10.7356 7.87199C11.1959 7.41167 11.4545 6.78735 11.4545 6.13636C11.4545 5.48538 11.1959 4.86105 10.7356 4.40074C10.2753 3.94042 9.65099 3.68182 9 3.68182ZM9 10.2273C7.91502 10.2273 6.87448 9.79627 6.10729 9.02907C5.3401 8.26188 4.90909 7.22134 4.90909 6.13636C4.90909 5.05139 5.3401 4.01085 6.10729 3.24365C6.87448 2.47646 7.91502 2.04545 9 2.04545C10.085 2.04545 11.1255 2.47646 11.8927 3.24365C12.6599 4.01085 13.0909 5.05139 13.0909 6.13636C13.0909 7.22134 12.6599 8.26188 11.8927 9.02907C11.1255 9.79627 10.085 10.2273 9 10.2273ZM9 0C4.90909 0 1.41545 2.54455 0 6.13636C1.41545 9.72818 4.90909 12.2727 9 12.2727C13.0909 12.2727 16.5845 9.72818 18 6.13636C16.5845 2.54455 13.0909 0 9 0Z" fill="white"/>
</svg>
