<svg width="21" height="20" viewBox="0 0 21 20" fill="none" xmlns="http://www.w3.org/2000/svg">
<path d="M17.8333 9.70508V17.5001C17.8333 17.7211 17.7455 17.9331 17.5893 18.0893C17.433 18.2456 17.221 18.3334 17 18.3334H3.66667C3.44566 18.3334 3.2337 18.2456 3.07741 18.0893C2.92113 17.9331 2.83334 17.7211 2.83334 17.5001V9.70508C2.29527 9.09671 1.9988 8.31226 2 7.50008V2.50008C2 2.27907 2.0878 2.06711 2.24408 1.91083C2.40036 1.75455 2.61232 1.66675 2.83334 1.66675H17.8333C18.0544 1.66675 18.2663 1.75455 18.4226 1.91083C18.5789 2.06711 18.6667 2.27907 18.6667 2.50008V7.50008C18.6675 8.31219 18.3711 9.09651 17.8333 9.70508ZM12 7.50008C12 7.27907 12.0878 7.06711 12.2441 6.91083C12.4004 6.75455 12.6123 6.66675 12.8333 6.66675C13.0544 6.66675 13.2663 6.75455 13.4226 6.91083C13.5789 7.06711 13.6667 7.27907 13.6667 7.50008C13.6667 7.94211 13.8423 8.36603 14.1548 8.67859C14.4674 8.99115 14.8913 9.16675 15.3333 9.16675C15.7754 9.16675 16.1993 8.99115 16.5118 8.67859C16.8244 8.36603 17 7.94211 17 7.50008V3.33341H3.66667V7.50008C3.66667 7.94211 3.84227 8.36603 4.15483 8.67859C4.46739 8.99115 4.89131 9.16675 5.33334 9.16675C5.77536 9.16675 6.19929 8.99115 6.51185 8.67859C6.82441 8.36603 7 7.94211 7 7.50008C7 7.27907 7.0878 7.06711 7.24408 6.91083C7.40036 6.75455 7.61232 6.66675 7.83334 6.66675C8.05435 6.66675 8.26631 6.75455 8.42259 6.91083C8.57887 7.06711 8.66667 7.27907 8.66667 7.50008C8.66667 7.94211 8.84227 8.36603 9.15483 8.67859C9.46739 8.99115 9.89131 9.16675 10.3333 9.16675C10.7754 9.16675 11.1993 8.99115 11.5118 8.67859C11.8244 8.36603 12 7.94211 12 7.50008Z" fill="#E8ECF4" fill-opacity="0.7"/>
</svg>
